<svg xmlns="http://www.w3.org/2000/svg" width="17.286" height="18.015" viewBox="0 0 17.286 18.015">
  <g id="sale_1_" data-name="sale (1)" transform="translate(-10.359 0.002)">
    <g id="Group_6122" data-name="Group 6122" transform="translate(10.359 -0.002)">
      <g id="Group_6121" data-name="Group 6121">
        <path id="Path_543" data-name="Path 543" d="M26.812,9.239a.528.528,0,0,1,0-.467L27.484,7.4a1.564,1.564,0,0,0-.675-2.077L25.457,4.6a.528.528,0,0,1-.274-.378L24.919,2.72a1.564,1.564,0,0,0-1.767-1.284l-1.515.214a.528.528,0,0,1-.444-.144L20.094.442a1.564,1.564,0,0,0-2.184,0l-1.1,1.064a.528.528,0,0,1-.444.144l-1.515-.214A1.564,1.564,0,0,0,13.085,2.72l-.264,1.507a.528.528,0,0,1-.274.378L11.2,5.321A1.564,1.564,0,0,0,10.521,7.4l.672,1.374a.528.528,0,0,1,0,.467l-.672,1.374A1.564,1.564,0,0,0,11.2,12.69l1.351.717a.528.528,0,0,1,.274.378l.264,1.507a1.563,1.563,0,0,0,1.542,1.3,1.607,1.607,0,0,0,.225-.016l1.515-.214a.528.528,0,0,1,.444.144l1.1,1.064a1.564,1.564,0,0,0,2.184,0l1.1-1.064a.528.528,0,0,1,.444-.144l1.515.214a1.564,1.564,0,0,0,1.767-1.284l.264-1.507a.528.528,0,0,1,.274-.378l1.351-.717a1.564,1.564,0,0,0,.675-2.077Zm-.49,2.533-1.351.717a1.56,1.56,0,0,0-.811,1.116L23.9,15.112a.529.529,0,0,1-.6.434l-1.515-.214a1.56,1.56,0,0,0-1.312.426l-1.1,1.064a.529.529,0,0,1-.739,0l-1.1-1.064a1.559,1.559,0,0,0-1.088-.442,1.6,1.6,0,0,0-.224.016l-1.515.214a.529.529,0,0,1-.6-.434l-.264-1.507a1.56,1.56,0,0,0-.811-1.116l-1.351-.717a.529.529,0,0,1-.228-.7L12.126,9.7a1.56,1.56,0,0,0,0-1.379l-.672-1.375a.529.529,0,0,1,.228-.7l1.351-.717a1.56,1.56,0,0,0,.811-1.116L14.109,2.9a.529.529,0,0,1,.6-.434l1.515.214a1.56,1.56,0,0,0,1.312-.426l1.1-1.064a.529.529,0,0,1,.739,0l1.1,1.064a1.56,1.56,0,0,0,1.312.426L23.3,2.465a.529.529,0,0,1,.6.434l.264,1.507a1.56,1.56,0,0,0,.811,1.116l1.351.717a.529.529,0,0,1,.228.7l-.672,1.374a1.56,1.56,0,0,0,0,1.379l.672,1.374A.529.529,0,0,1,26.322,11.773Z" transform="translate(-10.359 0.002)" fill="#265e9e"/>
      </g>
    </g>
    <g id="Group_6124" data-name="Group 6124" transform="translate(15.054 5.058)">
      <g id="Group_6123" data-name="Group 6123">
        <path id="Path_544" data-name="Path 544" d="M151.536,143.944a.52.52,0,0,0-.735,0l-6.857,6.857a.52.52,0,1,0,.735.735l6.857-6.857A.519.519,0,0,0,151.536,143.944Z" transform="translate(-143.791 -143.791)" fill="#265e9e"/>
      </g>
    </g>
    <g id="Group_6126" data-name="Group 6126" transform="translate(15.019 4.33)">
      <g id="Group_6125" data-name="Group 6125">
        <path id="Path_545" data-name="Path 545" d="M144.707,123.116a1.9,1.9,0,1,0,1.9,1.9A1.907,1.907,0,0,0,144.707,123.116Zm0,2.771a.866.866,0,1,1,.866-.866A.867.867,0,0,1,144.707,125.887Z" transform="translate(-142.802 -123.116)" fill="#265e9e"/>
      </g>
    </g>
    <g id="Group_6128" data-name="Group 6128" transform="translate(19.175 9.872)">
      <g id="Group_6127" data-name="Group 6127" transform="translate(0)">
        <path id="Path_546" data-name="Path 546" d="M262.827,280.61a1.9,1.9,0,1,0,1.9,1.9A1.907,1.907,0,0,0,262.827,280.61Zm0,2.771a.866.866,0,1,1,.866-.866A.867.867,0,0,1,262.827,283.381Z" transform="translate(-260.922 -280.61)" fill="#265e9e"/>
      </g>
    </g>
  </g>
</svg>
