<svg xmlns="http://www.w3.org/2000/svg" width="14.877" height="10.042" viewBox="0 0 14.877 10.042">
  <path id="Icon_zocial-email" data-name="Icon zocial-email" d="M.072,13.221V4.957q0-.014.043-.273l4.863,4.16L.129,13.508a1.216,1.216,0,0,1-.057-.287Zm.646-9.11a.618.618,0,0,1,.244-.043h13.1a.812.812,0,0,1,.258.043L9.44,8.286,8.794,8.8,7.518,9.849,6.241,8.8,5.6,8.286Zm.014,9.956L5.624,9.376l1.894,1.535L9.411,9.376,14.3,14.067a.689.689,0,0,1-.244.043H.961a.65.65,0,0,1-.23-.043Zm9.325-5.222,4.849-4.16a.856.856,0,0,1,.043.273v8.263a1.1,1.1,0,0,1-.043.287Z" transform="translate(-0.072 -4.068)" fill="#004695"/>
</svg>
