<svg xmlns="http://www.w3.org/2000/svg" width="12.877" height="17.279" viewBox="0 0 12.877 17.279">
  <g id="noun_Lock_837028" transform="translate(-22.604 -14.713)">
    <path id="Path_6" data-name="Path 6" d="M34.392,21.926c0-.149,0-.3,0-.446.015-2.132.03-4.145-1.285-5.471a5.4,5.4,0,0,0-4.009-1.3c-5.123,0-5.286,3.736-5.291,7.164a1.746,1.746,0,0,0-1.2,1.554v6.825a1.991,1.991,0,0,0,2.171,1.736H33.31a1.99,1.99,0,0,0,2.171-1.736V23.43A1.713,1.713,0,0,0,34.392,21.926Zm-5.349,6.8H27.559l.826-1.66a1.367,1.367,0,1,1,1.315,0l.826,1.66Zm3.3-7.264c0,.075,0,.153,0,.229H25.864c.025-3.708.379-4.928,3.235-4.928a3.561,3.561,0,0,1,2.552.69C32.365,18.175,32.353,19.7,32.34,21.465Z" transform="translate(0 0)" fill="#265e9e"/>
  </g>
</svg>
