<svg xmlns="http://www.w3.org/2000/svg" width="15.42" height="15.134" viewBox="0 0 15.42 15.134">
  <g id="noun_User_750578" transform="translate(-0.65 -1.544)">
    <path id="Path_5" data-name="Path 5" d="M11.193,12.027a.041.041,0,0,1-.03-.041V11.4a4.45,4.45,0,0,0,.745-1.475,3.012,3.012,0,0,0,.645-1.3A2.091,2.091,0,0,0,12.441,6.8l-.019-.025c.2-.955.445-3.211-1.269-4.354a1.056,1.056,0,0,0,.3-.77.1.1,0,0,0-.036-.072.108.108,0,0,0-.077-.023,14.454,14.454,0,0,1-3.2.03A2.287,2.287,0,0,0,5.681,2.987a1.562,1.562,0,0,0-1.016.573A3.478,3.478,0,0,0,4.239,6.29c.012.156.031.312.059.469l-.019.023a2.117,2.117,0,0,0-.112,1.831,2.994,2.994,0,0,0,.644,1.3A4.468,4.468,0,0,0,5.556,11.4v.572a.039.039,0,0,1-.03.041C4.061,12.364.65,13.445.65,16.145a.533.533,0,0,0,.533.533H15.538a.533.533,0,0,0,.533-.533C16.07,13.445,12.66,12.364,11.193,12.027ZM8.36,14.1A2.812,2.812,0,0,1,6.054,12.95a1.094,1.094,0,0,0,.5-.6,3.57,3.57,0,0,0,.77.384,3.1,3.1,0,0,0,2.069,0,3.646,3.646,0,0,0,.767-.387,1.094,1.094,0,0,0,.5.6A2.812,2.812,0,0,1,8.36,14.1ZM5.087,8.366c-.189-.667-.109-.909-.045-.994a.217.217,0,0,1,.187-.081h.045A.1.1,0,0,0,5.381,7.2a2.847,2.847,0,0,1,.97-1.969,1.73,1.73,0,0,1,1.623.03,4.748,4.748,0,0,0,2.933.4,1.355,1.355,0,0,1,.444,1.481v.02a.1.1,0,0,0,.1.136.244.244,0,0,1,.228.08c.064.084.144.327-.045.994-.242.855-.439.937-.494.937a.1.1,0,0,0-.092.086,3.257,3.257,0,0,1-1.978,2.444,2.131,2.131,0,0,1-1.426,0A3.185,3.185,0,0,1,5.673,9.391a.1.1,0,0,0-.092-.086C5.526,9.3,5.329,9.221,5.087,8.366Z" fill="#265e9e"/>
  </g>
</svg>
